<?xml version="1.0" encoding="UTF-8"?>
<svg width="180" height="40" viewBox="0 0 180 40" fill="none" xmlns="http://www.w3.org/2000/svg" role="img" aria-label="Jugoso Market logo">
  <defs>
    <linearGradient id="grad" x1="0" y1="0" x2="1" y2="1">
      <stop offset="0" stop-color="#FFB347"/>
      <stop offset="1" stop-color="#FF7A00"/>
    </linearGradient>
    <linearGradient id="leaf" x1="0" y1="0" x2="1" y2="1">
      <stop offset="0" stop-color="#34D399"/>
      <stop offset="1" stop-color="#059669"/>
    </linearGradient>
  </defs>

  <!-- Ãcono fruta -->
  <circle cx="20" cy="20" r="16" fill="url(#grad)"/>
  <circle cx="14" cy="14" r="4.5" fill="white" opacity="0.5"/>
  <path d="M24 6 C30 5, 34 7, 35 11 C31 12, 27 10, 24 6 Z" fill="url(#leaf)"/>
  <path d="M16 26 C16 23, 20 22, 20 19 C20 22, 24 23, 24 26 C24 28.2091 22.2091 30 20 30 C17.7909 30 16 28.2091 16 26 Z" fill="#FFFFFF" opacity="0.85"/>

  <!-- Texto: ambos en naranja -->
  <g transform="translate(44, 8)" fill="#EF7F1A">
    <text x="0" y="12" font-family="Inter, system-ui, -apple-system, Segoe UI, Roboto, Ubuntu, Cantarell" font-weight="700" font-size="14" letter-spacing="0.2">
      Jugoso
    </text>
    <text x="0" y="26" font-family="Inter, system-ui, -apple-system, Segoe UI, Roboto, Ubuntu, Cantarell" font-weight="600" font-size="12" letter-spacing="0.25">
      Market
    </text>
  </g>
</svg>
